<?xml version="1.0" encoding="UTF-8" standalone="no"?>
<!-- Created with Keyshape -->
<svg xmlns="http://www.w3.org/2000/svg" xmlns:xlink="http://www.w3.org/1999/xlink" id="Layer_1" viewBox="0 0 792 612" style="white-space: preserve-spaces;">
    <!-- Background -->
    <rect width="792" height="612" fill="#192837"/>
    <g transform="scale(0.6) translate(264, 204)">
    <style>
@keyframes XV_o { 0% { opacity: 0; } 43.2432% { opacity: 0; } 59.4595% { opacity: 1; } 72.973% { opacity: 1; } 86.4865% { opacity: 0; } 100% { opacity: 0; } }
@keyframes XIV_o { 0% { opacity: 0; } 40.5405% { opacity: 0; } 54.0541% { opacity: 1; } 72.973% { opacity: 1; } 86.4865% { opacity: 0; } 100% { opacity: 0; } }
@keyframes XIII_o { 0% { opacity: 0; } 37.8378% { opacity: 0; } 48.6486% { opacity: 1; } 72.973% { opacity: 1; } 86.4865% { opacity: 0; } 100% { opacity: 0; } }
@keyframes XII_o { 0% { opacity: 0; } 32.4324% { opacity: 0; } 48.6486% { opacity: 1; } 72.973% { opacity: 1; } 86.4865% { opacity: 0; } 100% { opacity: 0; } }
@keyframes XI_o { 0% { opacity: 0; } 29.7297% { opacity: 0; } 43.2432% { opacity: 1; } 72.973% { opacity: 1; } 86.4865% { opacity: 0; } 100% { opacity: 0; } }
@keyframes X_o { 0% { opacity: 0; } 27.027% { opacity: 0; } 37.8378% { opacity: 1; } 72.973% { opacity: 1; } 86.4865% { opacity: 0; } 100% { opacity: 0; } }
@keyframes IX_o { 0% { opacity: 0; } 21.6216% { opacity: 0; } 37.8378% { opacity: 1; } 72.973% { opacity: 1; } 86.4865% { opacity: 0; } 100% { opacity: 0; } }
@keyframes VIII_o { 0% { opacity: 0; } 18.9189% { opacity: 0; } 32.4324% { opacity: 1; } 72.973% { opacity: 1; } 86.4865% { opacity: 0; } 100% { opacity: 0; } }
@keyframes VII_o { 0% { opacity: 0; } 16.2162% { opacity: 0; } 27.027% { opacity: 1; } 72.973% { opacity: 1; } 86.4865% { opacity: 0; } 100% { opacity: 0; } }
@keyframes VI_o { 0% { opacity: 0; } 13.5135% { opacity: 0; } 29.7297% { opacity: 1; } 72.973% { opacity: 1; } 86.4865% { opacity: 0; } 100% { opacity: 0; } }
@keyframes V_o { 0% { opacity: 0; } 10.8108% { opacity: 0; } 24.3243% { opacity: 1; } 72.973% { opacity: 1; } 86.4865% { opacity: 0; } 100% { opacity: 0; } }
@keyframes IV_o { 0% { opacity: 0; } 8.1081% { opacity: 0; } 18.9189% { opacity: 1; } 72.973% { opacity: 1; } 86.4865% { opacity: 0; } 100% { opacity: 0; } }
@keyframes III_o { 0% { opacity: 0; } 5.4054% { opacity: 0; } 21.6216% { opacity: 1; } 72.973% { opacity: 1; } 86.4865% { opacity: 0; } 100% { opacity: 0; } }
@keyframes II_o { 0% { opacity: 0; } 2.7027% { opacity: 0; } 16.2162% { opacity: 1; } 72.973% { opacity: 1; } 86.4865% { opacity: 0; } 100% { opacity: 0; } }
@keyframes I_o { 0% { opacity: 0; } 10.8108% { opacity: 1; } 72.973% { opacity: 1; } 86.4865% { opacity: 0; } 100% { opacity: 0; } }
    </style>
    <g>
        <path id="XV" class="st1" d="M217.1,293.5C224.3,299.9,232.5,305.3,241.3,309.4C246.3,311.7,251.5,313.6,256.8,315.1C260,316,263.2,316.7,266.5,317.2C268.2,317.5,269.9,317.7,271.6,317.9C271.8,317.9,272,318,272.3,318C273.4,318.1,274.4,318.2,275.5,318.3C276.1,318.3,276.7,318.4,277.4,318.4C278.2,318.4,279.1,318.5,279.9,318.5C280.6,318.5,281.4,318.6,282.1,318.6C282.2,318.6,282.3,318.6,282.4,318.6C282.5,318.6,282.6,318.6,282.7,318.6C283.2,318.6,283.6,318.6,284.1,318.6C284.4,318.6,284.7,318.6,284.9,318.6C285.7,318.6,286.5,318.6,287.3,318.5C288.5,318.4,289.7,318.3,291,318.2C291.4,318.2,291.7,318.2,292.1,318.1C295.9,317.7,299.5,317.2,303.1,316.4C312.2,314.5,320.9,311.3,328.8,307.1C330.6,306.1,332.4,305.1,334.1,304.1C337.8,301.8,341.3,299.3,344.7,296.6C349.3,292.9,353.6,288.7,357.4,284.2C359.6,281.7,361.6,279,363.5,276.3C364.1,275.5,364.7,274.6,365.2,273.8C367.6,270.1,369.8,266.1,371.8,262.1C372.2,261.3,372.5,260.5,372.9,259.7C368.4,259,364,258,359.7,256.8C358.6,256.5,357.6,256.2,356.5,255.9C356.4,256.1,356.3,256.2,356.3,256.4C354,261,351.4,265.3,348.3,269.3C347.9,269.9,347.4,270.5,347,271C344.6,274,342,276.9,339.2,279.5C324.5,293.5,304.6,302.1,282.5,302.1C280.9,302.1,279.4,301.9,277.9,301.9C277.8,301.9,277.6,301.9,277.5,301.9C276.4,301.8,275.3,301.8,274.2,301.7C273.1,301.6,272,301.3,270.8,301.2C269.2,301,267.6,300.8,266,300.5C266,300.5,266,300.5,265.9,300.5C264.6,300.2,263.4,299.8,262.1,299.5C260.8,299.2,259.4,298.9,258.1,298.5C256.8,298.1,255.6,297.6,254.3,297.1C253,296.6,251.7,296.2,250.5,295.7C250.1,295.5,249.7,295.3,249.3,295.1C248.7,294.8,248.1,294.5,247.4,294.2C246,293.5,244.6,292.9,243.2,292.2C242.5,291.8,241.8,291.4,241.1,291C239.5,290,237.8,289.1,236.3,288C236,287.8,235.7,287.5,235.4,287.3C231.9,284.8,228.5,282,225.4,279C221.6,275.4,218.2,271.4,215.2,267.1C205.7,253.6,200.2,237.3,200.3,219.8C200.4,186,221.1,156.7,250.7,144.2C255.5,142.2,260.5,140.6,265.7,139.5C265.5,133.9,265.6,128.3,266.1,122.8C260.8,123.7,255.6,125,250.6,126.7C211.8,139.9,184.3,176.5,184,219.2C184,219.3,184,219.5,184,219.6C184,219.7,184,219.8,184,219.9C184,220.4,184,221,184,221.5C184,222.7,184,223.8,184.1,225C184.1,225,184.1,225,184.1,225.1C185,243.7,191.1,260.8,200.8,275.1C201.4,276,202.1,276.9,202.7,277.8C202.9,278.1,203.1,278.4,203.4,278.7C204.2,279.8,205,280.8,205.8,281.8C209.5,286,213.1,289.9,217.1,293.5ZM307.2,299.8C306.7,300,306.2,300.3,305.7,300.5C306.2,300.2,306.7,300,307.2,299.8Z" fill="#F04E25" fill-opacity="1" opacity="0" style="animation: 3.7s linear infinite both XV_o;"/>
        <path id="XIV" class="st1" d="M332.5,247.5C331.8,248.7,331.2,249.8,330.4,250.9C330.1,251.4,329.7,252,329.3,252.5C329.2,252.7,329.1,252.8,329,253C328.2,254.2,327.3,255.3,326.4,256.5C325.7,257.3,325,258.1,324.3,258.9C323.6,259.7,322.9,260.5,322.1,261.2C307.5,275.2,286.9,279.9,268.4,275.1C260.2,273,252.4,269,245.7,263.1C244.5,262.1,243.4,261,242.3,259.9C242.2,259.8,242.1,259.7,241.9,259.5C240.5,258,239.1,256.5,237.9,254.9C237.9,254.9,237.9,254.9,237.9,254.9C236.4,253,235,250.9,233.8,248.8C233.7,248.7,233.6,248.5,233.6,248.4C233.5,248.1,233.3,247.9,233.2,247.6C232.2,245.8,231.2,243.9,230.4,241.9C230.4,241.9,230.4,241.9,230.4,241.9C229.5,239.6,228.7,237.2,228,234.7C227.1,231.3,226.5,227.7,226.3,224C226,219.7,226.2,215.5,226.8,211.5C226.8,211.2,226.9,211,226.9,210.7C227.1,209.4,227.4,208.1,227.7,206.8C227.9,206.1,228,205.5,228.2,204.8C228.8,202.5,229.6,200.4,230.5,198.3C230.8,197.6,231.1,196.9,231.5,196.2C232,195,232.6,193.9,233.3,192.8C234,191.6,234.6,190.5,235.4,189.4C235.8,188.9,236.1,188.3,236.5,187.8C237.4,186.5,238.4,185.2,239.4,183.9C240.8,182.3,242.1,180.7,243.7,179.2C247.3,175.7,251.3,172.8,255.6,170.5C260.1,168,264.9,166.2,269.9,165C268.6,159.9,267.7,154.7,267,149.5C261.9,150.7,257,152.3,252.3,154.5C241,159.8,231.3,167.9,224.1,178C224,178.2,223.9,178.3,223.7,178.5C222.9,179.6,222.2,180.8,221.4,181.9C221.2,182.2,221,182.5,220.8,182.8C220.1,184,219.4,185.2,218.8,186.4C218.7,186.7,218.5,186.9,218.4,187.2C217.7,188.5,217.1,189.9,216.5,191.2C216.4,191.3,216.4,191.5,216.3,191.6C215.1,194.4,214.1,197.2,213.2,200.1C210,211.3,209.7,222.4,211.5,232.7C211.5,232.7,211.5,232.8,211.5,232.8C211.8,234.6,212.2,236.3,212.6,238.1C212.6,238.2,212.6,238.2,212.7,238.3C214.7,246,217.9,253.2,221.9,259.4C223.7,262.2,225.7,264.8,227.8,267.2C229,268.7,230.3,270.1,231.7,271.4C238.5,278.2,246.7,283.7,255.8,287.4C261.5,289.7,267.6,291.3,274,292.1C277.7,292.6,281.4,292.7,285.2,292.6C286.4,292.6,287.7,292.5,288.9,292.4C302.1,291.3,314.4,286.7,324.7,279.4C328.7,276.5,332.5,273.3,335.9,269.7C337,268.5,338.1,267.3,339.1,266C340,264.8,341,263.6,341.8,262.4C341.9,262.2,342,262.1,342.2,261.9C343,260.8,343.7,259.6,344.5,258.5C344.7,258.2,344.9,257.9,345.1,257.6C345.7,256.6,346.3,255.6,346.9,254.5C347,254.3,347.1,254.1,347.2,254C347.3,253.7,347.5,253.5,347.6,253.2C347.6,253.1,347.7,253.1,347.7,253C342.8,251.1,338,248.9,333.4,246.4C332.9,246.7,332.7,247.1,332.5,247.5Z" fill="#F04E25" fill-opacity="1" opacity="0" style="animation: 3.7s linear infinite both XIV_o;"/>
        <path id="XIII" class="st1" d="M302.7,244.1C301.2,245.3,299.6,246.4,297.9,247.4C291.7,250.8,284.3,252.2,276.7,250.7C273.1,250,269.8,248.6,266.8,246.8C265.8,246.2,264.8,245.5,263.9,244.8C263.6,244.6,263.3,244.3,262.9,244.1C262.8,244,262.7,243.9,262.6,243.8C261.7,243.1,260.9,242.3,260.1,241.5C259.7,241.1,259.4,240.7,259.1,240.3C258.6,239.7,258.1,239.1,257.6,238.4C257.2,237.9,256.9,237.4,256.5,236.9C255.9,236,255.3,235,254.8,234C254.5,233.4,254.3,232.9,254,232.3C253.9,232,253.8,231.7,253.7,231.5C253.5,231.1,253.4,230.7,253.3,230.3C253.1,229.7,252.9,229.1,252.7,228.6C252.4,227.5,252.1,226.3,251.9,225.1C251.8,224.6,251.8,224,251.7,223.5C251.6,222.7,251.5,221.9,251.5,221C251.5,220.4,251.5,219.8,251.5,219.1C251.5,218.4,251.6,217.6,251.7,216.9C251.9,215.4,252.1,213.8,252.5,212.3C254.4,204.9,258.4,199.1,264.3,194.8C265.4,194,266.5,193.3,267.7,192.6C271,190.8,274.6,189.6,278.4,189C276.5,185,274.7,180.8,273.2,176.5C268.1,177.6,263.4,179.6,259.1,182.3C253.5,185.8,248.9,190.5,245.3,196C245.3,196.1,245.2,196.1,245.2,196.2C244.5,197.3,243.8,198.5,243.2,199.7C240.8,204.3,239.3,209.1,238.7,214.3C238.6,215.3,238.4,216.4,238.4,217.4C238.4,217.7,238.4,217.9,238.4,218.2C238.3,220.7,238.4,223.1,238.7,225.6C239.3,230.5,240.7,234.9,242.7,239.1C243.2,240,243.6,241,244.1,241.9C244.2,242.1,244.4,242.3,244.5,242.6C244.9,243.3,245.4,244.1,245.9,244.8C246.3,245.4,246.8,246.1,247.2,246.7C247.3,246.9,247.4,247,247.6,247.1C248.8,248.7,250.1,250.2,251.5,251.5C260,259.9,271.8,264.7,284.3,264.3C286.8,264.2,289.3,263.9,291.8,263.4C298.6,262,304.7,259.1,309.9,255C311.1,254.1,312.2,253.1,313.3,252C315.9,249.5,318.1,246.8,320,243.8C320,243.7,320.1,243.7,320.1,243.6C320.8,242.5,321.5,241.3,322.1,240.1C322.2,240,322.2,239.9,322.3,239.8C318.6,237.3,315,234.6,311.5,231.7C309.8,236.7,306.7,240.8,302.7,244.1Z" fill="#F04E25" fill-opacity="1" opacity="0" style="animation: 3.7s linear infinite both XIII_o;"/>
        <path id="XII" class="st1" d="M402.7,418.7C406.4,414.7,409.8,410.3,412.9,405.7C414.7,402.9,416.4,400.1,417.9,397.1C418.7,395.6,419.4,394.1,420.1,392.5C420.2,392.3,420.3,392.1,420.4,391.9C420.8,390.9,421.2,389.9,421.6,388.9C421.8,388.3,422.1,387.7,422.3,387.2C422.6,386.4,422.9,385.6,423.2,384.8C423.4,384.1,423.7,383.4,424,382.7C424,382.6,424.1,382.5,424.1,382.4C424.1,382.3,424.2,382.2,424.2,382.1C424.3,381.7,424.5,381.2,424.6,380.8C424.7,380.5,424.8,380.3,424.8,380C425,379.2,425.3,378.4,425.5,377.7C425.8,376.5,426.1,375.3,426.4,374.1C426.5,373.7,426.6,373.4,426.7,373C427.5,369.3,428.1,365.6,428.5,362C429.5,352.7,429.2,343.5,427.6,334.6C427.2,332.6,426.8,330.5,426.3,328.5C425.3,324.3,424,320.2,422.5,316.2C420.4,310.7,417.8,305.3,414.7,300.3C413,297.5,411.1,294.7,409.1,292C408.5,291.2,407.9,290.4,407.2,289.6C404.4,286.1,401.3,282.8,398.1,279.7C397.5,279.1,396.8,278.5,396.2,278C394.1,282,391.8,285.9,389.4,289.7C388.8,290.6,388.2,291.5,387.6,292.4C387.7,292.5,387.8,292.6,388,292.8C391.6,296.4,394.9,300.2,397.8,304.4C398.2,305,398.6,305.6,399,306.2C401.1,309.4,403,312.8,404.7,316.3C413.4,334.6,415.5,356.2,408.6,377.2C408.1,378.7,407.5,380.1,406.9,381.5C406.8,381.6,406.8,381.8,406.8,381.9C406.4,382.9,406.1,384,405.6,384.9C405.1,385.9,404.6,386.9,404.1,387.9C403.4,389.3,402.7,390.8,401.9,392.2C401.9,392.2,401.9,392.2,401.9,392.3C401.2,393.4,400.5,394.5,399.8,395.6C399.1,396.8,398.4,397.9,397.6,399.1C396.8,400.2,396,401.2,395.1,402.3C394.3,403.4,393.5,404.5,392.6,405.5C392.3,405.8,392,406.2,391.7,406.5C391.2,407,390.7,407.5,390.3,408C389.2,409.1,388.2,410.3,387.1,411.3C386.5,411.9,385.9,412.3,385.3,412.9C383.9,414.2,382.5,415.4,381,416.6C380.7,416.8,380.4,417,380,417.3C376.5,419.9,372.9,422.2,369.1,424.2C364.5,426.7,359.6,428.7,354.6,430.2C338.9,435,321.6,435.2,305,429.8C272.9,419.3,251.4,390.6,248.7,358.5C248.3,353.3,248.3,348.1,248.9,342.8C243.5,341.3,238.2,339.4,233.1,337.3C232.3,342.7,231.9,348,232,353.3C232.6,394.2,258.9,431.7,299.4,445.2C299.5,445.2,299.7,445.3,299.8,445.3C299.9,445.3,300,445.4,300.1,445.4C300.6,445.6,301.1,445.7,301.7,445.9C302.8,446.2,303.9,446.6,305,446.9C305,446.9,305,446.9,305.1,446.9C323.1,451.7,341.2,451.3,357.8,446.5C358.9,446.2,359.9,445.8,361,445.5C361.4,445.4,361.7,445.3,362.1,445.2C363.3,444.8,364.6,444.3,365.8,443.9C370.8,442,375.6,439.7,380.3,437C388.4,431.9,396.1,425.8,402.7,418.7ZM414.1,354.7C414,354,413.9,353.4,413.9,352.7C413.9,353.3,414,354,414.1,354.7Z" fill="#F04E25" fill-opacity="1" opacity="0" style="animation: 3.7s linear infinite both XII_o;"/>
        <path id="XI" class="st1" d="M371,311.8C371.3,312.1,371.6,312.4,371.9,312.8C372.8,313.8,373.7,314.8,374.5,315.8C374.9,316.3,375.3,316.8,375.7,317.3C375.8,317.5,375.9,317.6,376,317.8C376.9,318.9,377.7,320.1,378.5,321.4C379.1,322.3,379.6,323.2,380.1,324.1C380.6,325,381.1,326,381.6,326.9C390.4,345.1,388.5,366.2,378.2,382.3C373.6,389.4,367.4,395.6,359.7,400.2C358.3,401,357,401.7,355.6,402.4C355.4,402.5,355.3,402.6,355.1,402.6C353.2,403.5,351.4,404.3,349.5,405L349.5,405L349.5,405L349.5,405C349.2,405.1,348.9,405.2,348.6,405.3C348.3,405.4,348.1,405.5,347.8,405.6C346.1,406.2,344.3,406.6,342.5,407C342.3,407,342.2,407.1,342,407.1C341.7,407.2,341.4,407.2,341.1,407.3C339,407.7,337,408,334.8,408.2C334.8,408.2,334.8,408.2,334.8,408.2C332.3,408.4,329.8,408.4,327.2,408.3C323.7,408.1,320.1,407.5,316.5,406.6C312.3,405.5,308.4,404.1,304.7,402.3C304.5,402.2,304.2,402,304,401.9C302.8,401.3,301.7,400.6,300.5,399.9C299.9,399.5,299.3,399.2,298.8,398.8C296.8,397.5,295,396.1,293.3,394.6C292.7,394.1,292.1,393.5,291.6,393C290.7,392.1,289.8,391.2,288.9,390.3C288,389.3,287.1,388.3,286.3,387.3C285.9,386.8,285.5,386.3,285.1,385.8C284.1,384.5,283.2,383.2,282.3,381.8C281.2,380,280.1,378.2,279.2,376.3C277,371.8,275.5,367.1,274.6,362.4C273.6,357.3,273.4,352.2,273.8,347.1C268.5,346.7,263.3,346,258.2,345C257.7,350.2,257.8,355.4,258.4,360.5C259.9,372.9,264.7,384.6,272,394.5C272.1,394.7,272.2,394.8,272.4,395C273.2,396.1,274.1,397.2,275,398.2C275.2,398.5,275.5,398.8,275.7,399C276.6,400,277.5,401.1,278.5,402.1C278.7,402.3,278.9,402.5,279.1,402.7C280.1,403.8,281.2,404.8,282.3,405.8C282.4,405.9,282.5,406,282.6,406.1C284.9,408.1,287.2,410,289.7,411.7C299.3,418.2,309.8,421.9,320.1,423.4C320.1,423.4,320.2,423.4,320.2,423.4C322,423.7,323.8,423.8,325.6,423.9C325.7,423.9,325.8,423.9,325.8,423.9C333.8,424.4,341.5,423.6,348.7,421.7C351.9,420.8,355,419.8,358,418.5C359.8,417.8,361.5,417,363.2,416.1C371.8,411.7,379.5,405.6,385.9,398.1C389.9,393.4,393.3,388.1,396,382.3C397.6,379,398.9,375.5,400,371.8C400.3,370.6,400.7,369.4,400.9,368.2C404,355.3,403.4,342.2,399.6,330.2C398.1,325.5,396.2,320.9,393.8,316.6C393,315.2,392.2,313.7,391.3,312.3C390.5,311,389.6,309.8,388.8,308.6C388.7,308.4,388.6,308.3,388.4,308.1C387.6,307,386.7,305.9,385.8,304.9C385.6,304.6,385.3,304.3,385.1,304.1C384.3,303.2,383.5,302.3,382.7,301.5C382.6,301.4,382.4,301.2,382.3,301.1C382.1,300.9,381.9,300.7,381.7,300.5C381.7,300.5,381.6,300.4,381.6,300.4C378.4,304.3,374.8,308.2,371,311.8Z" fill="#F04E25" fill-opacity="1" opacity="0" style="animation: 3.7s linear infinite both XI_o;"/>
        <path id="X" class="st1" d="M287.4,362.4C289,368.8,292.1,374.7,296.2,379.7C296.2,379.8,296.3,379.8,296.3,379.9C297.2,380.9,298.1,381.9,299,382.9C302.6,386.6,306.7,389.6,311.4,391.7C312.3,392.1,313.3,392.6,314.3,393C314.5,393.1,314.8,393.2,315,393.2C317.3,394,319.7,394.7,322.2,395.2C327,396.1,331.7,396.2,336.3,395.6C337.3,395.5,338.4,395.3,339.4,395.1C339.6,395.1,339.9,395,340.1,394.9C340.9,394.7,341.8,394.5,342.6,394.3C343.4,394.1,344.1,393.9,344.8,393.6C345,393.5,345.2,393.5,345.3,393.4C347.2,392.7,349,391.9,350.7,391C361.4,385.5,369.6,375.8,373,363.7C373.7,361.3,374.2,358.8,374.5,356.3C375.3,349.4,374.4,342.7,372.1,336.5C371.6,335.1,371,333.7,370.3,332.4C368.7,329.2,366.8,326.2,364.6,323.4C364.6,323.3,364.5,323.3,364.5,323.2C363.6,322.2,362.7,321.2,361.8,320.2C361.7,320.1,361.6,320.1,361.6,320C358.1,322.8,354.4,325.4,350.6,327.8C354.6,331.2,357.6,335.3,359.5,340.2C360.2,341.9,360.7,343.8,361.1,345.7C362.4,352.7,361.4,360.1,357.7,366.8C355.9,370,353.6,372.8,351,375.1C350.1,375.9,349.2,376.6,348.2,377.3C347.9,377.5,347.5,377.8,347.2,378C347.1,378.1,347,378.1,346.9,378.2C345.9,378.8,344.9,379.4,343.9,379.9C343.4,380.1,343,380.3,342.5,380.5C341.8,380.8,341,381.1,340.3,381.3C339.7,381.5,339.1,381.7,338.5,381.8C337.4,382.1,336.3,382.3,335.2,382.5C334.6,382.6,334,382.6,333.3,382.7C333,382.7,332.7,382.7,332.4,382.8C332,382.8,331.6,382.8,331.1,382.9C330.5,382.9,329.9,382.9,329.3,382.9C328.1,382.9,326.9,382.8,325.8,382.6C325.3,382.5,324.8,382.4,324.2,382.3C323.4,382.1,322.6,381.9,321.8,381.7C321.2,381.5,320.6,381.4,320,381.1C319.3,380.9,318.6,380.6,318,380.3C316.6,379.7,315.2,379,313.9,378.1C307.5,374,303.2,368.4,300.9,361.5C300.5,360.2,300.1,358.9,299.8,357.5C299.1,353.8,299.1,350,299.7,346.3C295.3,346.9,290.8,347.2,286.2,347.4C285.7,352.5,286.1,357.6,287.4,362.4Z" fill="#F04E25" fill-opacity="1" opacity="0" style="animation: 3.7s linear infinite both X_o;"/>
        <path id="IX" class="st1" d="M566.7,326.1C564.7,316.7,561.2,307.5,556.5,299C553.8,294.2,550.8,289.6,547.3,285.3C545.2,282.7,543,280.3,540.7,277.9C539.5,276.7,538.3,275.5,537,274.3C536.8,274.1,536.7,274,536.5,273.8C535.7,273.1,534.9,272.4,534.1,271.7C533.6,271.3,533.2,270.9,532.7,270.5C532,270,531.4,269.5,530.7,268.9C530.1,268.4,529.5,268,528.9,267.5C528.8,267.4,528.7,267.4,528.6,267.3C528.5,267.2,528.4,267.2,528.4,267.1C528,266.8,527.6,266.6,527.3,266.3C527.1,266.1,526.8,266,526.6,265.8C525.9,265.3,525.3,264.9,524.6,264.4C523.6,263.7,522.5,263.1,521.5,262.5C521.2,262.3,520.9,262.1,520.6,261.9C517.4,260,514,258.3,510.7,256.8C502.2,253,493.3,250.5,484.4,249.2C482.4,248.9,480.4,248.7,478.3,248.5C474,248.2,469.7,248.1,465.4,248.3C459.5,248.6,453.6,249.5,447.8,250.8C444.6,251.6,441.4,252.5,438.2,253.6C437.2,253.9,436.3,254.3,435.3,254.6C431.1,256.2,427,258.1,423.1,260.2C422.3,260.6,421.6,261,420.9,261.5C424.1,264.7,427.1,268.1,429.9,271.6C430.6,272.5,431.3,273.3,431.9,274.2C432.1,274.1,432.2,274,432.4,274C436.9,271.6,441.6,269.7,446.4,268.2C447.1,268,447.8,267.8,448.5,267.6C452.2,266.6,456,265.8,459.8,265.3C479.9,262.6,501.1,267.4,519,280.4C520.3,281.3,521.4,282.3,522.6,283.3C522.7,283.4,522.8,283.5,522.9,283.6C523.7,284.3,524.6,284.9,525.4,285.7C526.2,286.5,527,287.3,527.8,288.1C529,289.2,530.1,290.3,531.2,291.5C531.2,291.5,531.2,291.5,531.2,291.6C532.1,292.6,532.9,293.6,533.7,294.6C534.6,295.7,535.5,296.7,536.3,297.8C537.1,298.9,537.8,300,538.5,301.1C539.3,302.2,540.1,303.3,540.7,304.5C540.9,304.9,541.1,305.3,541.3,305.7C541.6,306.3,541.9,306.9,542.3,307.5C543,308.9,543.8,310.2,544.5,311.6C544.8,312.3,545.1,313.1,545.4,313.8C546.2,315.5,546.9,317.3,547.6,319C547.7,319.4,547.8,319.8,548,320.1C549.4,324.2,550.5,328.4,551.2,332.6C552.1,337.8,552.5,343,552.4,348.2C552.1,364.7,547,381.1,536.7,395.3C516.8,422.5,482.8,434.2,451.5,426.8C446.5,425.6,441.5,423.9,436.7,421.8C433.6,426.5,430.2,430.9,426.5,435.1C431.3,437.5,436.3,439.5,441.4,441.1C480.5,453.2,524.3,439.8,549.7,405.4C549.8,405.3,549.9,405.2,549.9,405.1C550,405,550,404.9,550.1,404.8C550.4,404.4,550.7,403.9,551,403.5C551.7,402.5,552.3,401.6,553,400.6C553,400.6,553,400.6,553,400.6C563.2,385,568.3,367.6,568.9,350.3C568.9,349.2,568.9,348.1,568.9,346.9C568.9,346.5,568.9,346.1,568.9,345.8C568.9,344.5,568.8,343.2,568.8,341.9C568.5,336.6,567.8,331.3,566.7,326.1ZM497.2,268C497.8,268.1,498.5,268.3,499.1,268.4C498.5,268.3,497.8,268.1,497.2,268Z" fill="#F04E25" fill-opacity="1" opacity="0" style="animation: 3.7s linear infinite both IX_o;"/>
        <path id="VIII" class="st1" d="M446.3,295.5C447.5,294.9,448.7,294.4,450,293.9C450.6,293.7,451.2,293.5,451.8,293.3C452,293.2,452.2,293.2,452.3,293.1C453.7,292.6,455,292.2,456.4,291.8C457.4,291.5,458.4,291.3,459.5,291.1C460.5,290.9,461.6,290.7,462.7,290.5C482.8,287.7,502.2,296,514.3,310.9C519.7,317.5,523.6,325.3,525.6,334C525.9,335.5,526.2,337.1,526.4,338.6C526.4,338.8,526.5,338.9,526.5,339.1C526.7,340.6,526.9,342.2,527,343.7C527,344.2,527.1,344.7,527.1,345.2L527.1,345.2L527.1,345.2C527.2,347.7,527.1,350.1,526.8,352.5C526.8,352.7,526.8,352.8,526.7,353C526.7,353.3,526.6,353.6,526.6,353.9C526.3,356,526,358.1,525.5,360.1C525.5,360.1,525.5,360.1,525.5,360.1C524.9,362.5,524.2,364.9,523.2,367.3C521.9,370.6,520.3,373.8,518.3,377C516,380.7,513.4,384,510.5,386.9C510.3,387.1,510.1,387.3,509.9,387.5C508.9,388.5,507.9,389.3,506.9,390.2C506.4,390.6,505.9,391.1,505.4,391.5C503.6,393,501.7,394.2,499.7,395.4C499,395.8,498.3,396.2,497.6,396.6C496.5,397.2,495.3,397.8,494.2,398.3C493,398.9,491.8,399.4,490.5,399.9C489.9,400.1,489.3,400.3,488.7,400.5C487.2,401,485.6,401.5,484,401.9C482,402.4,479.9,402.9,477.8,403.2C472.8,403.9,467.9,403.9,463.1,403.3C458,402.7,453,401.3,448.3,399.4C446.3,404.3,444,409,441.5,413.6C446.3,415.7,451.3,417.2,456.3,418.2C468.5,420.5,481.1,419.7,492.9,415.8C493.1,415.7,493.3,415.7,493.5,415.6C494.8,415.2,496.1,414.7,497.4,414.2C497.7,414.1,498.1,413.9,498.4,413.8C499.7,413.3,500.9,412.7,502.2,412.1C502.5,412,502.7,411.8,503,411.7C504.3,411,505.6,410.3,506.9,409.6C507,409.5,507.1,409.5,507.3,409.4C509.9,407.9,512.4,406.2,514.8,404.4C524,397.2,530.7,388.4,535.3,379.1C535.3,379.1,535.3,379,535.4,379C536.2,377.4,536.9,375.7,537.6,374.1C537.6,374,537.7,374,537.7,373.9C540.6,366.5,542.3,358.8,542.7,351.4C542.9,348.1,542.8,344.8,542.5,341.6C542.4,339.7,542.1,337.8,541.8,335.9C540.3,326.3,536.9,317.1,531.7,308.8C528.4,303.6,524.5,298.7,519.8,294.3C517.1,291.8,514.2,289.4,511,287.3C510,286.6,508.9,285.9,507.9,285.3C496.6,278.4,483.9,274.9,471.3,274.8C466.3,274.7,461.4,275.2,456.5,276.1C454.9,276.4,453.3,276.8,451.7,277.2C450.3,277.6,448.8,278,447.4,278.5C447.2,278.6,447,278.6,446.8,278.7C445.5,279.1,444.2,279.6,442.9,280.1C442.6,280.2,442.2,280.4,441.9,280.5C440.8,281,439.7,281.5,438.7,282C438.5,282.1,438.3,282.2,438.2,282.3C437.9,282.4,437.7,282.6,437.4,282.7C437.4,282.7,437.3,282.8,437.3,282.8C440.2,287.2,442.7,291.8,445,296.5C445.5,295.9,445.9,295.7,446.3,295.5Z" fill="#F04E25" fill-opacity="1" opacity="0" style="animation: 3.7s linear infinite both VIII_o;"/>
        <path id="VII" class="st1" d="M449.9,307.5C451.5,311.7,452.8,316,453.9,320.4C458.4,317.6,463.2,316.1,468.4,315.8C470.3,315.7,472.2,315.7,474.1,316C481.1,316.9,487.9,320.2,493.1,325.8C495.6,328.5,497.5,331.5,498.9,334.8C499.4,335.9,499.8,337,500.1,338.1C500.2,338.5,500.3,338.9,500.4,339.3C500.4,339.4,500.5,339.6,500.5,339.7C500.8,340.8,501,341.9,501.1,343.1C501.2,343.6,501.2,344.1,501.2,344.6C501.3,345.4,501.3,346.2,501.3,347C501.3,347.6,501.3,348.2,501.3,348.9C501.2,350,501.1,351.1,500.9,352.2C500.8,352.8,500.6,353.4,500.5,354C500.4,354.3,500.4,354.6,500.3,354.9C500.2,355.3,500.1,355.7,500,356.1C499.8,356.7,499.6,357.3,499.4,357.8C499,358.9,498.5,360,498,361.1C497.8,361.6,497.5,362,497.2,362.5C496.8,363.2,496.4,363.9,495.9,364.6C495.5,365.1,495.2,365.6,494.8,366.1C494.4,366.7,493.9,367.2,493.4,367.8C492.4,368.9,491.3,370,490.1,371.1C484.2,375.9,477.6,378.3,470.3,378.3C469,378.3,467.6,378.2,466.2,378.1C462.5,377.6,458.9,376.5,455.5,374.7C454.7,379.1,453.6,383.5,452.4,387.8C457.2,389.9,462.2,391.1,467.2,391.4C473.8,391.8,480.3,390.8,486.4,388.4C486.5,388.4,486.5,388.3,486.6,388.3C487.9,387.8,489.1,387.2,490.3,386.6C495,384.3,499,381.3,502.5,377.5C503.2,376.7,503.9,376,504.6,375.2C504.8,375,504.9,374.8,505.1,374.6C506.6,372.7,508,370.6,509.2,368.4C511.5,364.1,513.1,359.7,513.9,355.1C514.1,354.1,514.2,353.1,514.4,352C514.4,351.7,514.5,351.5,514.5,351.2C514.6,350.3,514.6,349.5,514.7,348.6C514.7,347.8,514.7,347,514.7,346.3C514.7,346.1,514.7,345.9,514.7,345.7C514.6,343.7,514.5,341.7,514.1,339.8C512.2,328,505.4,317.1,495.1,310.1C493,308.7,490.8,307.5,488.5,306.4C482.2,303.5,475.5,302.3,468.9,302.6C467.4,302.7,465.9,302.8,464.4,303C460.9,303.5,457.4,304.4,454.1,305.7C454,305.7,454,305.8,453.9,305.8C452.6,306.3,451.4,306.9,450.2,307.5C450.1,307.4,450,307.5,449.9,307.5Z" fill="#F04E25" fill-opacity="1" opacity="0" style="animation: 3.7s linear infinite both VII_o;"/>
        <path id="VI" class="st1" d="M589.2,154.9C589.1,154.8,589.1,154.7,589,154.6C588.7,154.2,588.3,153.7,588,153.3C587.3,152.4,586.6,151.4,585.9,150.5C585.9,150.5,585.9,150.5,585.9,150.5C574.2,136,559.3,125.7,543,119.8C541.9,119.4,540.9,119.1,539.8,118.7C539.4,118.6,539.1,118.4,538.7,118.3C537.4,117.9,536.2,117.5,534.9,117.2C529.7,115.8,524.5,114.8,519.1,114.3C509.5,113.3,499.7,113.7,490.1,115.6C484.7,116.7,479.4,118.2,474.2,120.1C471.1,121.3,468.1,122.6,465.1,124.1C463.6,124.9,462.1,125.7,460.6,126.5C460.4,126.6,460.2,126.7,460,126.8C459.1,127.3,458.2,127.9,457.2,128.5C456.7,128.8,456.1,129.1,455.6,129.5C454.9,130,454.2,130.4,453.5,130.9C452.9,131.3,452.3,131.7,451.7,132.1C451.6,132.2,451.5,132.2,451.4,132.3C451.3,132.4,451.2,132.4,451.1,132.5C450.7,132.8,450.4,133.1,450,133.3C449.8,133.5,449.6,133.6,449.3,133.8C448.7,134.3,448,134.8,447.4,135.3C446.4,136.1,445.5,136.9,444.6,137.7C444.3,137.9,444,138.2,443.8,138.4C441,140.9,438.3,143.5,435.8,146.2C429.5,153.1,424.4,160.7,420.4,168.9C419.5,170.7,418.7,172.6,417.9,174.5C416.2,178.5,414.9,182.6,413.7,186.7C412.2,192.4,411.1,198.3,410.7,204.2C410.4,207.5,410.3,210.9,410.4,214.2C410.4,215.2,410.5,216.3,410.5,217.3C410.7,221.8,411.3,226.2,412.1,230.6C412.3,231.4,412.4,232.3,412.6,233.1C416.6,231.1,420.8,229.2,425,227.6C426,227.2,427,226.8,428.1,226.5C428.1,226.3,428,226.2,428,226C427.2,221,426.8,216,426.9,210.9C426.9,210.2,426.9,209.4,427,208.7C427.2,204.8,427.6,201,428.3,197.2C432,177.2,443,158.5,460.9,145.6C462.2,144.7,463.5,143.9,464.8,143.1C464.9,143,465,142.9,465.1,142.9C466,142.3,466.9,141.7,467.8,141.1C468.8,140.5,469.8,140.1,470.8,139.5C472.2,138.7,473.6,138,475.1,137.3C475.1,137.3,475.1,137.3,475.2,137.3C476.4,136.8,477.6,136.3,478.9,135.9C480.2,135.4,481.4,134.8,482.7,134.4C484,134,485.3,133.7,486.5,133.3C487.8,132.9,489.1,132.5,490.4,132.2C490.8,132.1,491.3,132,491.7,131.9C492.4,131.8,493.1,131.7,493.8,131.5C495.3,131.2,496.8,130.9,498.4,130.7C499.2,130.6,500,130.6,500.8,130.5C502.7,130.3,504.6,130.1,506.4,130.1C506.8,130.1,507.2,130.1,507.6,130.1C511.9,130,516.2,130.3,520.5,130.9C525.7,131.6,530.8,132.9,535.8,134.6C551.4,139.9,565.4,149.9,575.7,164.1C595.5,191.4,596,227.3,579.4,254.9C576.7,259.3,573.6,263.5,570,267.5C573.5,271.9,576.7,276.5,579.5,281.3C583.3,277.4,586.7,273.3,589.8,269C613.4,235.5,614.2,189.7,589.3,155C589.3,155.1,589.2,155,589.2,154.9ZM442.4,162.4C442.7,161.9,443,161.3,443.3,160.8C443,161.4,442.7,161.9,442.4,162.4Z" fill="#F04E25" fill-opacity="1" opacity="0" style="animation: 3.7s linear infinite both VI_o;"/>
        <path id="V" class="st1" d="M452.8,219.5C452.6,218.2,452.5,216.8,452.5,215.5C452.5,214.9,452.5,214.2,452.5,213.6C452.5,213.4,452.5,213.2,452.5,213C452.5,211.6,452.5,210.1,452.6,208.7C452.7,207.7,452.8,206.6,452.9,205.6C453,204.5,453.2,203.5,453.4,202.4C457,182.5,470.9,166.6,488.7,159.6C496.6,156.5,505.3,155.2,514.1,156C515.7,156.1,517.2,156.4,518.7,156.6C518.9,156.6,519,156.7,519.2,156.7C521.2,157.1,523.2,157.5,525.2,158C525.2,158,525.2,158,525.2,158C527.6,158.7,529.8,159.5,532.1,160.5C532.3,160.6,532.4,160.6,532.6,160.7C532.9,160.8,533.1,161,533.4,161.1C535.3,162,537.2,163,539,164.1C539,164.1,539,164.1,539,164.1C541.1,165.4,543.2,166.9,545.2,168.5C547.9,170.8,550.5,173.3,552.9,176.2C555.7,179.5,558,183,559.9,186.6C560,186.8,560.1,187.1,560.3,187.3C560.9,188.5,561.4,189.7,562,191C562.3,191.6,562.5,192.2,562.8,192.9C563.6,195.1,564.2,197.3,564.8,199.5C565,200.3,565.1,201,565.3,201.8C565.5,203.1,565.7,204.3,565.9,205.6C566.1,206.9,566.2,208.3,566.2,209.6C566.2,210.2,566.2,210.9,566.2,211.5C566.2,213.1,566.2,214.7,566.1,216.4C566,218.5,565.8,220.6,565.4,222.7C564.5,227.6,563,232.3,560.9,236.7C558.7,241.4,555.9,245.7,552.6,249.5C556.7,252.9,560.5,256.5,564,260.3C567.5,256.4,570.4,252.1,572.9,247.6C578.9,236.7,582,224.4,581.9,212.1C581.9,211.9,581.9,211.7,581.9,211.5C581.9,210.1,581.8,208.8,581.7,207.4C581.7,207,581.7,206.7,581.6,206.3C581.5,204.9,581.3,203.6,581.1,202.2C581.1,201.9,581,201.6,581,201.3C580.8,199.8,580.5,198.4,580.2,196.9C580.2,196.8,580.1,196.6,580.1,196.5C579.4,193.6,578.6,190.7,577.6,187.8C573.6,176.9,567.4,167.7,559.9,160.4C559.9,160.4,559.8,160.3,559.8,160.3C558.5,159,557.2,157.8,555.8,156.7C555.7,156.7,555.7,156.6,555.6,156.6C549.4,151.5,542.7,147.6,535.8,144.9C532.7,143.7,529.5,142.7,526.4,142C524.5,141.6,522.7,141.2,520.8,140.9C511.3,139.4,501.4,139.8,491.9,142.1C485.9,143.6,480,145.9,474.4,149C471.2,150.8,468,152.8,465,155.2C464,156,463.1,156.7,462.1,157.5C452,166.2,444.8,177.1,440.8,189C439.2,193.7,438.1,198.5,437.5,203.4C437.3,205,437.1,206.7,437,208.4C436.9,209.9,436.9,211.4,436.9,212.9C436.9,213.1,436.9,213.3,436.9,213.5C436.9,214.9,437,216.2,437.1,217.6C437.1,218,437.1,218.3,437.2,218.7C437.3,219.9,437.4,221.1,437.6,222.2C437.6,222.4,437.6,222.6,437.7,222.8C437.7,223.1,437.8,223.4,437.8,223.7C437.8,223.8,437.8,223.8,437.8,223.9C442.9,222.6,448,221.5,453.2,220.8C452.9,220.3,452.8,219.9,452.8,219.5Z" fill="#F04E25" fill-opacity="1" opacity="0" style="animation: 3.7s linear infinite both V_o;"/>
        <path id="IV" class="st1" d="M478.8,219.9C477.5,214.8,477.6,209.7,478.9,204.7C479.4,202.9,480,201.1,480.8,199.3C483.8,192.9,489,187.5,496,184.2C499.3,182.6,502.8,181.8,506.3,181.5C507.5,181.4,508.7,181.4,509.8,181.4C510.2,181.4,510.6,181.4,511,181.4C511.1,181.4,511.3,181.4,511.4,181.4C512.5,181.5,513.7,181.6,514.8,181.8C515.3,181.9,515.8,182,516.3,182.2C517.1,182.4,517.9,182.6,518.6,182.8C519.2,183,519.8,183.2,520.4,183.4C521.4,183.8,522.5,184.3,523.5,184.8C524.1,185.1,524.6,185.4,525.1,185.7C525.4,185.9,525.6,186,525.9,186.2C526.3,186.4,526.6,186.7,527,186.9C527.5,187.2,528,187.6,528.5,188C529.4,188.7,530.3,189.5,531.2,190.3C531.6,190.7,531.9,191.1,532.3,191.5C532.9,192.1,533.4,192.7,533.9,193.4C534.3,193.9,534.7,194.4,535,194.9C535.4,195.5,535.8,196.1,536.1,196.8C536.9,198.1,537.6,199.5,538.2,201C541,208.1,541.2,215.1,539,222C538.6,223.3,538.1,224.6,537.5,225.8C535.9,229.2,533.7,232.3,531,234.9C534.9,237,538.8,239.4,542.5,242C546,238.1,548.6,233.7,550.5,229.1C552.9,223,553.9,216.4,553.6,210C553.6,209.9,553.6,209.8,553.6,209.8C553.5,208.5,553.4,207.1,553.2,205.8C552.5,200.7,550.9,195.9,548.3,191.3C547.8,190.4,547.3,189.5,546.7,188.6C546.6,188.4,546.4,188.2,546.3,188C544.9,186,543.4,184,541.7,182.2C538.3,178.7,534.6,175.8,530.5,173.6C529.6,173.1,528.7,172.6,527.7,172.2C527.5,172.1,527.2,172,527,171.9C526.2,171.6,525.4,171.2,524.6,171C523.9,170.7,523.1,170.5,522.4,170.2C522.2,170.1,522,170.1,521.9,170C520,169.4,518.1,169,516.1,168.7C504.2,166.9,491.9,169.9,482,177.6C480,179.1,478.2,180.8,476.4,182.8C471.7,187.9,468.5,193.9,466.7,200.2C466.3,201.7,465.9,203.1,465.7,204.6C465.1,208.1,464.9,211.7,465.1,215.2C465.1,215.3,465.1,215.4,465.1,215.4C465.2,216.8,465.3,218.1,465.5,219.4C465.5,219.5,465.5,219.6,465.6,219.7C469.8,219.5,474.3,219.6,478.8,219.9Z" fill="#F04E25" fill-opacity="1" opacity="0" style="animation: 3.7s linear infinite both IV_o;"/>
        <path id="III" class="st1" d="M295.4,122.2C294.7,127.6,294.5,133.2,294.8,138.7C295,142,295.3,145.3,295.8,148.6C296.1,150.3,296.3,151.9,296.7,153.6C296.7,153.8,296.8,154,296.8,154.3C297,155.3,297.3,156.4,297.5,157.4C297.6,158,297.8,158.6,297.9,159.2C298.1,160,298.4,160.8,298.6,161.6C298.8,162.3,299,163,299.2,163.7C299.2,163.8,299.3,163.9,299.3,164C299.3,164.1,299.4,164.2,299.4,164.3C299.5,164.8,299.7,165.2,299.9,165.7C300,165.9,300.1,166.2,300.2,166.4C300.5,167.2,300.7,167.9,301,168.7C301.4,169.9,301.9,171,302.4,172.1C302.5,172.4,302.7,172.8,302.8,173.1C304.3,176.6,306,179.9,307.8,183.2C312.4,191.2,318.1,198.4,324.5,204.7C326,206.2,327.5,207.6,329.1,208.9C332.4,211.7,335.8,214.3,339.4,216.6C344.4,219.8,349.6,222.6,355.1,224.9C358.2,226.2,361.3,227.3,364.5,228.3C365.5,228.6,366.5,228.9,367.4,229.1C371.7,230.3,376.1,231.1,380.6,231.7C381.5,231.8,382.3,231.9,383.2,232C382.5,227.5,382.1,223,381.8,218.5C381.7,217.4,381.7,216.3,381.7,215.2C381.5,215.2,381.4,215.1,381.2,215.1C376.2,214.4,371.2,213.1,366.5,211.5C365.8,211.3,365.1,211,364.4,210.8C360.8,209.4,357.3,207.8,353.9,206C336.1,196.3,321.7,180,314.9,159C314.4,157.5,314.1,156,313.7,154.5C313.7,154.4,313.6,154.3,313.6,154.2C313.3,153.1,313,152.1,312.7,151C312.5,149.9,312.3,148.8,312.2,147.6C311.9,146,311.6,144.4,311.4,142.8C311.4,142.8,311.4,142.8,311.4,142.8C311.3,141.5,311.2,140.1,311.1,138.8C311,137.4,310.9,136.1,310.9,134.7C310.9,133.4,311,132,311,130.7C311.1,129.3,311,128,311.2,126.7C311.2,126.3,311.3,125.8,311.3,125.4C311.4,124.7,311.5,124,311.6,123.3C311.8,121.8,312,120.2,312.2,118.7C312.3,117.9,312.6,117.1,312.7,116.3C313.1,114.5,313.5,112.6,314,110.8C314.1,110.4,314.3,110.1,314.4,109.7C315.7,105.6,317.3,101.6,319.2,97.7C321.5,93,324.2,88.5,327.4,84.3C337.3,71.1,351.2,60.8,367.8,55.5C399.9,45.2,434.2,55.7,455.3,80.1C458.7,84,461.7,88.3,464.4,92.9C469.7,90.9,475,89.3,480.4,88.1C477.9,83.3,475.1,78.8,471.9,74.5C447.6,42,404.3,27.1,363.6,40C363.5,40,363.3,40.1,363.2,40.1C363.1,40.1,363,40.2,362.9,40.2C362.4,40.4,361.9,40.6,361.4,40.7C360.3,41.1,359.2,41.5,358.1,41.9C358.1,41.9,358.1,41.9,358.1,41.9C340.7,48.5,326.3,59.6,315.7,73.2C315,74.1,314.3,75,313.7,75.9C313.5,76.2,313.2,76.5,313,76.8C312.2,77.9,311.5,79,310.8,80.1C307.9,84.6,305.3,89.3,303.2,94.2C299.2,103.1,296.6,112.5,295.4,122.2ZM324.9,181.8C325.9,182.9,326.9,184,327.8,185.2L327.8,185.2L327.8,185.2C326.9,184.1,325.9,183,324.9,181.8C324.5,181.4,324.2,181,323.8,180.6C324.1,181.1,324.5,181.5,324.9,181.8Z" fill="#F04E25" fill-opacity="1" opacity="0" style="animation: 3.7s linear infinite both III_o;"/>
        <path id="II" class="st1" d="M446.3,84.5C437.8,75.4,427.1,68.7,415.3,64.9C415.1,64.8,414.9,64.8,414.7,64.7C413.4,64.3,412.1,63.9,410.7,63.6C410.3,63.5,410,63.4,409.6,63.3C408.3,63,406.9,62.7,405.5,62.5C405.2,62.4,404.9,62.4,404.6,62.4C403.1,62.2,401.7,62,400.2,61.8C400.1,61.8,399.9,61.8,399.8,61.8C396.8,61.5,393.8,61.4,390.8,61.5C379.2,61.9,368.5,65,359.3,69.9C359.3,69.9,359.2,69.9,359.2,70C357.6,70.9,356,71.8,354.5,72.7C354.4,72.7,354.4,72.8,354.3,72.8C347.5,77.1,341.7,82.3,337,88.1C334.9,90.7,333,93.4,331.4,96.1C330.4,97.7,329.5,99.4,328.6,101.1C324.2,109.7,321.5,119.2,320.9,129C320.5,135.2,320.8,141.5,322,147.7C322.7,151.3,323.7,154.9,325,158.5C325.4,159.7,325.9,160.9,326.4,162C331.5,174.2,339.7,184.4,349.7,191.9C353.7,194.9,357.9,197.4,362.4,199.5C363.9,200.2,365.4,200.9,367,201.5C368.4,202,369.8,202.5,371.2,203C371.4,203.1,371.6,203.1,371.8,203.2C373.1,203.6,374.4,204,375.8,204.3C376.2,204.4,376.5,204.5,376.9,204.6C378,204.9,379.2,205.1,380.4,205.3C380.6,205.3,380.8,205.4,381,205.4C381.3,205.5,381.6,205.5,381.9,205.5C382,205.5,382,205.5,382.1,205.5C382.4,200.3,383,195,383.9,189.9C383.5,189.8,383,189.7,382.6,189.7C381.3,189.4,380,189.2,378.7,188.8C378.1,188.6,377.5,188.4,376.9,188.2C376.7,188.1,376.5,188.1,376.3,188C374.9,187.6,373.6,187.1,372.2,186.6C371.2,186.2,370.3,185.8,369.3,185.4C368.3,185,367.4,184.5,366.4,184C348.6,174.4,337.7,156.3,336.6,137.2C336.1,128.7,337.5,120,341,111.8C341.6,110.4,342.3,109,343,107.6C343.1,107.4,343.2,107.3,343.3,107.1C344.3,105.3,345.3,103.5,346.4,101.8C346.4,101.8,346.4,101.8,346.4,101.8C347.8,99.8,349.3,97.9,350.9,96C351,95.9,351.1,95.8,351.2,95.6C351.4,95.4,351.6,95.2,351.8,95C353.2,93.5,354.8,92,356.4,90.6C356.4,90.6,356.4,90.6,356.4,90.6C358.3,89,360.3,87.5,362.5,86.1C365.5,84.2,368.7,82.6,372.2,81.2C376.2,79.6,380.3,78.5,384.3,77.8C384.6,77.8,384.8,77.7,385.1,77.7C386.4,77.5,387.8,77.4,389.1,77.3C389.8,77.2,390.4,77.2,391.1,77.2C393.4,77.1,395.7,77.2,398,77.4C398.8,77.5,399.6,77.6,400.3,77.7C401.6,77.9,402.8,78.1,404.1,78.3C405.4,78.6,406.7,78.8,408,79.2C408.6,79.4,409.2,79.6,409.8,79.8C411.3,80.3,412.9,80.8,414.4,81.4C416.3,82.2,418.3,83,420.2,84C424.6,86.4,428.6,89.3,432.1,92.6C435.9,96.1,439.1,100.1,441.7,104.5C446.2,101.7,450.8,99.2,455.5,97C452.9,92.4,449.8,88.3,446.3,84.5Z" fill="#F04E25" fill-opacity="1" opacity="0" style="animation: 3.7s linear infinite both II_o;"/>
        <path id="I" class="st1" d="M421.8,99.9C416.7,95.7,410.8,92.7,404.5,91.1C404.4,91.1,404.3,91.1,404.3,91C403,90.7,401.7,90.4,400.3,90.2C395.2,89.3,390.1,89.4,385,90.4C384,90.6,382.9,90.8,381.9,91.1C381.7,91.2,381.4,91.3,381.2,91.3C378.8,92,376.5,92.8,374.2,93.9C369.8,96,365.9,98.7,362.6,101.9C361.9,102.6,361.1,103.3,360.4,104.1C360.2,104.3,360.1,104.5,359.9,104.7C359.3,105.3,358.8,106,358.3,106.7C357.8,107.3,357.3,107.9,356.9,108.6C356.8,108.8,356.7,108.9,356.6,109.1C355.5,110.8,354.5,112.5,353.6,114.2C348.2,124.9,347.3,137.7,351.6,149.4C352.4,151.7,353.5,154,354.7,156.2C358.1,162.2,362.8,167.1,368.2,170.8C369.5,171.7,370.8,172.4,372.1,173.2C375.2,174.9,378.6,176.2,382,177.1C382.1,177.1,382.1,177.1,382.2,177.2C383.5,177.5,384.8,177.8,386.2,178C386.3,178,386.4,178,386.5,178C387.7,173.7,389.2,169.4,390.8,165.2C385.5,164.8,380.7,163.2,376.3,160.4C374.7,159.4,373.2,158.2,371.7,156.9C366.5,152,363,145.4,362.1,137.8C361.7,134.1,361.9,130.6,362.7,127.2C363,126,363.3,124.9,363.7,123.8C363.8,123.4,364,123,364.1,122.7C364.1,122.6,364.2,122.5,364.2,122.4C364.6,121.3,365.1,120.3,365.7,119.3C365.9,118.8,366.2,118.4,366.5,118C366.9,117.3,367.4,116.6,367.8,116C368.2,115.5,368.5,115,368.9,114.5C369.6,113.6,370.4,112.8,371.2,112C371.6,111.6,372.1,111.2,372.6,110.8C372.8,110.6,373,110.4,373.3,110.2C373.6,109.9,374,109.7,374.3,109.4C374.8,109,375.3,108.7,375.8,108.3C376.8,107.6,377.8,107,378.8,106.5C379.3,106.3,379.8,106.1,380.2,105.8C380.9,105.5,381.7,105.2,382.5,104.9C383.1,104.7,383.7,104.5,384.3,104.3C385,104.1,385.7,103.9,386.4,103.8C387.9,103.5,389.4,103.2,391,103.1C398.6,102.6,405.3,104.6,411.2,108.9C412.3,109.7,413.4,110.5,414.4,111.5C417.1,114.1,419.4,117.1,421.1,120.5C424.3,117.4,427.8,114.5,431.4,111.7C429,107,425.6,103.1,421.8,99.9Z" fill="#F04E25" fill-opacity="1" opacity="0" style="animation: 3.7s linear infinite both I_o;"/>
    </g>
    <g transform="translate(396,555) translate(-255.2,-21.8)">
        <path class="st3" d="M144.7,533.2L176.2,533.2C181.5,533.2,184.1,535.8,184.1,541.1L184.1,543.1C184.1,545.7,182.8,547,180.2,547C177.6,547,176.3,545.7,176.3,543.1C176.3,541.8,175.6,541.1,174.3,541.1L148.7,541.1L148.7,551L172.4,551C175,551,176.3,552.3,176.3,554.9L176.3,555.1C176.3,557.7,175,559,172.4,559L148.7,559L148.7,568.9L174.3,568.9C175.6,568.9,176.3,568.2,176.3,566.9C176.3,564.3,177.6,563,180.2,563C182.8,563,184.1,564.3,184.1,566.9L184.1,568.9C184.1,574.2,181.5,576.8,176.2,576.8L144.7,576.8C142.1,576.8,140.8,575.5,140.8,572.9L140.8,537.3C140.8,534.5,142.1,533.2,144.7,533.2Z" fill="#FFFFFF" transform="translate(-140.8,-533.2)"/>
        <path class="st3" d="M236.5,533.2L240.4,533.2L279.9,566.7L279.9,537.1C279.9,534.5,281.2,533.2,283.8,533.2C286.4,533.2,287.7,534.5,287.7,537.1L287.7,572.6C287.7,575.2,286.4,576.5,283.8,576.5L279.9,576.5L240.4,543L240.4,572.6C240.4,575.3,239.1,576.6,236.5,576.6C233.9,576.6,232.6,575.3,232.6,572.7L232.6,537.1C232.6,534.5,233.9,533.2,236.5,533.2Z" fill="#FFFFFF" transform="translate(-140.8,-533.2)"/>
        <path class="st3" d="M341.8,533.2C344.4,533.2,345.7,534.5,345.7,537.1L345.7,572.6C345.7,575.3,344.4,576.6,341.8,576.6C339.2,576.6,337.9,575.3,337.9,572.7L337.9,537.1C337.9,534.5,339.2,533.2,341.8,533.2Z" fill="#FFFFFF" transform="translate(-140.8,-533.2)"/>
        <path class="st3" d="M403.8,533.2L439.3,533.2C444.6,533.2,447.2,535.8,447.2,541.1L447.2,543.1L447.2,543.2C447.2,545.8,445.9,547,443.3,547.1C440.7,547.1,439.4,545.8,439.4,543.2C439.4,541.9,438.8,541.2,437.5,541.2L407.9,541.2C405.3,541.2,404,542.5,404,545.1L404,564.8C404,567.4,405.3,568.7,407.9,568.7L437.5,568.7C438.8,568.7,439.5,567.4,439.5,564.8L439.5,560.9C439.5,559.6,438.8,558.9,437.5,558.9L433.6,558.9C430.9,558.9,429.6,557.6,429.6,554.9C429.6,552.3,430.9,551,433.5,551L439.5,551C444.8,551,447.4,553.6,447.4,558.9L447.4,568.7C447.4,574,444.8,576.6,439.6,576.6L439.5,576.6L403.9,576.6C398.7,576.6,396,574,396,568.7L396,541.1C395.9,535.8,398.5,533.2,403.8,533.2Z" fill="#FFFFFF" transform="translate(-140.8,-533.2)"/>
        <path class="st3" d="M499.7,533.2L503.6,533.2L525.3,556.9L547,533.2L550.9,533.2C553.5,533.2,554.9,534.5,554.9,537.1L554.9,572.6C554.9,575.2,553.6,576.5,551,576.5C548.3,576.5,547,575.2,547,572.6L547,545L525.3,568.7L503.6,545L503.6,572.6C503.6,575.3,502.3,576.6,499.7,576.6C497.1,576.6,495.8,575.3,495.8,572.7L495.8,537.1C495.7,534.5,497.1,533.2,499.7,533.2Z" fill="#FFFFFF" transform="translate(-140.8,-533.2)"/>
        <path class="st3" d="M610.2,568.7L605.8,576.6C601.9,576.6,599.9,575.3,599.9,572.7L621.6,533.2L629.5,533.2L651.2,572.7C651.2,575.3,649.2,576.6,645.3,576.6L640.9,568.7L610.2,568.7ZM636.5,560.8L625.5,541.1L614.5,560.8L636.5,560.8Z" fill="#FFFFFF" transform="translate(-140.8,-533.2)"/>
    </g>
    </g>
</svg>
