<?xml version="1.0" encoding="UTF-8"?>
<svg id="Layer_1" xmlns="http://www.w3.org/2000/svg" version="1.1" viewBox="0 0 144 144">
  <!-- Generator: Adobe Illustrator 29.3.0, SVG Export Plug-In . SVG Version: 2.1.0 Build 146)  -->
  <path d="M109.4,32.5c-20.1-20.1-52.7-20.1-72.8,0,0,0,0,0,0,0-.7.7-1.3,1.3-1.9,2,21.2-19,53.8-17.2,72.8,4,17.5,19.6,17.5,49.2,0,68.8.7-.6,1.3-1.2,2-1.9,20.1-20.1,20.1-52.7,0-72.9Z"/>
  <polygon points="60.7 72.2 60.7 55.5 55.1 51.6 55.1 76.1 81.5 76.1 77.6 72.2 60.7 72.2"/>
  <polygon points="55.1 92 60.7 95.9 60.7 81.9 55.1 78 55.1 92"/>
  <polygon points="93.1 75.5 93.1 52.2 86.7 45.8 45.2 45.8 49.1 49.7 83.3 49.7 87.4 53.9 87.4 73.9 82 79.4 86.9 92 94.4 95.9 88.3 80.3 93.1 75.5"/>
</svg>